# xmcd
#
# Track frame offsets:
# 150
# 19071
# 36329
# 60517
# 74912
# 88223
# 104528
# 122887
# 137673
# 154438
# 169645
# 186684
# 200534
# 218815
# 235015
#
# Disc length: 3271 seconds
#
#
# Revision: 0
# Processed by: cddbd v1.5.1PL0 Copyright (c) Steve Scherf et al.
# Submitted via: FreeRIP 2.90 
#
DISCID=e80cc50f
DTITLE=Dan Treanor and Frankie Lee - African Wind
DYEAR=2004
DGENRE=Blues
TTITLE0=Missing
TTITLE1=Mean Woman Blues
TTITLE2=Love A Woman's Soul
TTITLE3=Tell Me Mama
TTITLE4=African Wind
TTITLE5=The Groit Man
TTITLE6=Got No Lifeline
TTITLE7=Black Hanna
TTITLE8=Cut With Dynamite
TTITLE9=Kidnapped By The Blues
TTITLE10=Texas Son
TTITLE11=Who's Playing Who
TTITLE12=Lonesome Road
TTITLE13=True Love
TTITLE14=Cane Flute Soul
EXTD=Bluesfestradio.com
EXTT0=
EXTT1=
EXTT2=
EXTT3=
EXTT4=
EXTT5=
EXTT6=
EXTT7=
EXTT8=
EXTT9=
EXTT10=
EXTT11=
EXTT12=
EXTT13=
EXTT14=
PLAYORDER=
